<svg id="Layer_1" data-name="Layer 1" xmlns="http://www.w3.org/2000/svg" xmlns:xlink="http://www.w3.org/1999/xlink" viewBox="0 0 1920 1080"><defs><style>.cls-1{fill:#181818;}.cls-2{fill:url(#Aykut);}.cls-3{fill:url(#Aykut-2);}.cls-4{fill:url(#Aykut-3);}.cls-5{fill:url(#linear-gradient);}.cls-6{fill:#fff;}</style><linearGradient id="Aykut" x1="598" y1="476.5" x2="1277" y2="476.5" gradientUnits="userSpaceOnUse"><stop offset="0" stop-color="#f36"/><stop offset="1" stop-color="#f63"/></linearGradient><linearGradient id="Aykut-2" x1="1500.92" y1="581.44" x2="2091.08" y2="950.56" xlink:href="#Aykut"/><linearGradient id="Aykut-3" x1="-106" y1="851" x2="558" y2="851" gradientTransform="translate(1077 625) rotate(90)" xlink:href="#Aykut"/><linearGradient id="linear-gradient" x1="1167.69" y1="-201.1" x2="2201.67" y2="-201.1" gradientTransform="matrix(0.87, -0.22, 0.5, 0.39, 53.78, 723.41)" gradientUnits="userSpaceOnUse"><stop offset="0" stop-color="#cdcdcd"/><stop offset="0.04" stop-color="#d0d1d1"/><stop offset="0.57" stop-color="#faffff"/></linearGradient></defs><rect class="cls-1" width="1920" height="1080"/><rect class="cls-2" x="598" y="137" width="679" height="679" rx="339.5"/><rect class="cls-3" x="1448" y="418" width="696" height="696" rx="348" transform="matrix(0.85, -0.53, 0.53, 0.85, -132.88, 1068.95)"/><rect class="cls-4" x="-106" y="519" width="664" height="664" rx="332" transform="translate(-351.49 186.33) rotate(-26.11)"/><g id="Layer_2" data-name="Layer 2"><rect class="cls-5" x="1352.2" y="-143.24" width="120" height="828.17" transform="translate(324.62 -669.82) rotate(30)"/><path class="cls-6" d="M246.54-881.31h121a0,0,0,0,1,0,0V1242.93a0,0,0,0,1,0,0h0a121,121,0,0,1-121-121V-881.31A0,0,0,0,1,246.54-881.31Z" transform="translate(-3.06 356.31) rotate(-60)"/></g></svg>